<?xml version="1.0" standalone="no"?>
<!DOCTYPE svg PUBLIC "-//W3C//DTD SVG 20010904//EN"
 "http://www.w3.org/TR/2001/REC-SVG-20010904/DTD/svg10.dtd">
<svg version="1.0" xmlns="http://www.w3.org/2000/svg"
 width="500.000000pt" height="500.000000pt" viewBox="0 0 500.000000 500.000000"
 preserveAspectRatio="xMidYMid meet">
<metadata>
Created by potrace 1.14, written by Peter Selinger 2001-2017
</metadata>
<g transform="translate(0.000000,500.000000) scale(0.100000,-0.100000)"
fill="#000000" stroke="none">
<path d="M2188 4584 c-2 -2 -49 -6 -104 -8 -54 -3 -99 -6 -99 -6 0 -1 -25 -4
-55 -6 -71 -4 -155 -12 -155 -14 0 -1 -11 -3 -25 -4 -27 -3 -102 -16 -135 -23
-11 -2 -31 -6 -45 -8 -41 -7 -64 -13 -91 -23 -15 -6 -30 -8 -33 -5 -3 3 -12 0
-21 -7 -8 -7 -15 -9 -15 -6 0 4 -9 2 -21 -4 -20 -11 -49 -20 -79 -23 -8 -1
-17 -4 -20 -7 -5 -5 -60 -33 -70 -35 -27 -5 -140 -70 -184 -105 -51 -40 -123
-106 -141 -129 -11 -14 -25 -32 -32 -39 -6 -6 -15 -21 -18 -32 -3 -11 -11 -20
-16 -20 -5 0 -8 -3 -7 -7 1 -5 -8 -30 -20 -57 -12 -27 -22 -56 -22 -66 0 -9
-3 -20 -7 -24 -4 -4 -8 -17 -9 -29 -1 -12 -5 -40 -9 -62 -12 -63 -12 -2209 0
-2217 6 -5 6 -8 -1 -8 -11 0 -11 -20 1 -100 13 -91 53 -220 69 -220 5 0 7 -3
3 -6 -3 -3 5 -24 19 -45 13 -21 24 -40 24 -43 0 -20 210 -227 210 -208 0 4 4
2 8 -4 7 -12 81 -52 96 -52 5 0 12 -4 15 -9 5 -7 96 -41 131 -48 22 -5 126
-17 146 -17 13 0 24 -5 24 -10 0 -6 -70 -80 -156 -165 l-156 -155 -2 -49 c-2
-28 2 -53 8 -57 16 -10 369 -10 383 0 6 5 14 5 18 -2 11 -19 41 7 257 223
l213 213 307 -1 307 0 -5 22 c-3 12 -7 37 -8 56 -1 18 -5 37 -8 43 -3 5 -5 21
-4 37 1 15 -1 27 -4 27 -6 0 -4 108 4 175 10 83 49 245 58 245 5 0 6 5 3 10
-4 6 -1 18 7 27 7 9 12 17 10 17 -2 1 2 15 8 31 6 17 11 30 9 30 -1 0 10 20
25 45 15 25 33 60 41 78 9 17 20 32 25 32 6 0 10 7 10 15 0 8 5 15 10 15 6 0
10 5 10 10 0 6 10 21 21 33 34 36 59 80 59 107 0 66 89 190 158 221 18 7 32
18 32 22 0 5 4 5 10 2 5 -3 18 -1 28 4 22 12 132 16 183 7 20 -4 49 -2 65 5
16 7 35 13 43 15 7 1 34 8 60 14 25 6 65 11 88 13 24 1 43 4 43 7 0 5 178 6
190 1 3 -1 25 -4 50 -6 25 -2 56 -6 70 -9 14 -3 43 -10 65 -15 54 -11 137 -41
153 -53 6 -6 12 -8 12 -5 0 3 12 0 27 -8 15 -8 29 -13 30 -11 4 3 5 1315 2
1333 -1 4 0 13 1 18 4 21 -1 323 -6 370 -4 28 -14 82 -25 120 -19 72 -76 195
-91 195 -4 0 -8 4 -8 10 0 5 -18 29 -40 51 -22 23 -40 46 -40 52 0 6 -3 8 -6
4 -3 -3 -14 2 -23 11 -31 29 -54 46 -116 83 -61 37 -231 109 -257 109 -8 0
-19 5 -26 12 -7 7 -12 9 -12 6 0 -3 -17 -2 -37 4 -43 11 -82 19 -100 20 -7 1
-13 5 -13 10 0 5 -3 7 -8 4 -4 -2 -27 0 -52 5 -25 5 -70 11 -100 14 -30 3 -65
7 -76 9 -12 2 -59 7 -105 11 -46 3 -111 8 -144 11 -71 6 -782 14 -787 8z m93
-1104 c3 -40 5 -626 2 -636 -3 -8 -165 -10 -551 -10 l-547 1 0 325 0 325 65 5
c36 3 282 5 548 5 421 0 482 -2 483 -15z m1537 6 c3 -4 6 -538 3 -634 -1 -18
-23 -19 -548 -18 l-548 1 0 60 c0 33 -4 63 -10 67 -6 5 -7 8 0 8 11 0 13 165
2 176 -3 4 -3 12 0 18 11 17 10 110 -2 118 -7 5 -7 8 0 8 6 0 10 37 9 95 -1
68 3 98 12 103 14 8 1074 6 1082 -2z m-2032 -1319 c96 -9 191 -74 236 -162 12
-22 20 -41 20 -42 -1 -2 4 -17 11 -35 23 -61 9 -176 -30 -252 -18 -36 -100
-116 -118 -116 -7 0 -15 -4 -17 -9 -1 -6 -15 -12 -30 -15 -14 -2 -35 -8 -45
-13 -20 -10 -97 -9 -157 1 -80 13 -165 77 -210 159 -22 39 -42 123 -40 167 3
47 14 114 21 119 4 3 9 13 11 21 2 8 8 17 13 18 5 2 7 7 4 11 -7 12 80 96 119
115 39 19 137 45 151 40 6 -1 33 -5 61 -7z"/>
<path d="M3320 1880 c11 -15 20 -33 20 -39 0 -6 5 -11 11 -11 5 0 7 -4 4 -10
-3 -5 -2 -10 2 -10 12 0 46 -82 36 -89 -4 -3 -17 -24 -28 -46 -10 -22 -27 -51
-37 -64 -10 -13 -18 -31 -18 -40 0 -9 3 -12 8 -6 4 6 27 20 52 33 25 13 60 32
78 42 32 19 32 19 65 0 69 -41 107 -59 107 -53 0 4 7 -2 16 -13 14 -18 15 -18
8 6 -4 14 -18 42 -30 62 -13 21 -24 42 -24 48 0 5 -4 10 -9 10 -20 0 -19 45 3
84 13 23 33 58 45 80 26 46 22 55 -16 30 -15 -11 -46 -28 -68 -39 -22 -11 -43
-24 -47 -30 -7 -9 -113 37 -128 55 -6 7 -39 22 -58 26 -7 1 -4 -9 8 -26z"/>
<path d="M4201 1853 c18 -32 41 -71 50 -86 16 -27 16 -31 0 -58 -9 -16 -20
-29 -24 -29 -5 0 -6 -4 -2 -9 3 -5 0 -16 -7 -23 -7 -8 -21 -28 -30 -46 -17
-31 -17 -32 4 -32 12 0 19 3 15 6 -8 9 123 74 149 74 12 0 27 -7 34 -15 7 -8
19 -15 26 -15 8 0 14 -5 14 -10 0 -6 3 -10 8 -9 15 2 52 -14 52 -22 0 -5 7 -9
15 -9 11 0 9 9 -10 43 -14 23 -35 61 -47 85 l-21 44 20 36 c11 20 32 58 47 85
15 26 24 47 20 47 -4 0 -42 -20 -85 -45 -43 -25 -81 -45 -84 -45 -3 0 -41 20
-85 45 -44 25 -82 45 -85 45 -4 0 8 -26 26 -57z"/>
<path d="M3900 1553 c-8 -2 -75 -64 -148 -138 -74 -73 -135 -134 -138 -134 -2
-1 -22 -21 -44 -45 -50 -54 -199 -203 -273 -273 -31 -29 -54 -53 -53 -53 2 0
-48 -51 -111 -114 -95 -94 -116 -120 -118 -147 -2 -23 4 -39 20 -55 13 -13 25
-26 27 -31 2 -4 37 -40 78 -80 91 -87 116 -95 166 -51 75 66 674 671 674 681
0 6 3 8 6 5 8 -9 164 153 175 180 6 15 5 31 -2 45 -13 25 -193 207 -205 208
-5 0 -16 2 -24 3 -8 1 -22 1 -30 -1z m93 -319 c-46 -46 -88 -84 -93 -84 -8 0
-46 36 -123 117 l-28 30 88 87 87 87 77 -77 77 -77 -85 -83z"/>
<path d="M4170 1044 c0 -3 8 -18 18 -32 9 -15 31 -53 47 -85 34 -64 37 -45
-33 -169 -24 -41 -28 -56 -17 -54 8 1 21 8 27 14 7 7 17 12 24 12 7 0 14 3 16
8 2 4 24 17 49 30 l46 23 69 -37 c38 -21 71 -42 72 -46 2 -4 8 -8 13 -8 11 0
12 40 2 40 -5 0 -19 24 -33 53 -14 28 -29 55 -34 58 -11 9 2 65 20 80 8 6 14
16 14 21 0 6 8 22 18 36 19 28 34 62 27 62 -2 0 -10 -6 -17 -12 -7 -7 -45 -29
-83 -49 l-70 -36 -50 27 c-27 15 -67 36 -87 48 -21 12 -38 19 -38 16z"/>
</g>
</svg>
